# xmcd
#
# Track frame offsets:
#	150
#	17421
#	34768
#	51435
#	65771
#	80803
#	100336
#	115617
#	135578
#	153800
#	170651
#	188232
#	211154
#	230499
#	250066
#	274067
#	292365
#	304875
#
# Disc length: 4341 seconds
#
# Revision: 0
# Processed by: cddbd v1.5.1PL0 Copyright (c) Steve Scherf et al.
# Submitted via: audiograbber 1.83.01
#
DISCID=0510f312
DTITLE=Valentine's Day - Forever in Love II
DYEAR=1900
DGENRE=
TTITLE0=Berlin - Take My Breath Away
TTITLE1=Lionel Richie - Hello
TTITLE2=Glenn Medeiros - Nothing's Gonna Change My Love For You
TTITLE3=Stevie B. - Because I Love You
TTITLE4=Beverley Crave - Promise Me
TTITLE5=Chirs Isaak - Wicked Game
TTITLE6=Mariah Carey - Without You
TTITLE7=Terence Trent D'arby - Sign Your Name
TTITLE8=Roxette - It Must Have Been Love
TTITLE9=Richard Marx - Right Here Waiting
TTITLE10=Gary Moore - Still Got The Blues
TTITLE11=Scorpions - Wind of Change
TTITLE12=Guns N' Roses - Don't Cry
TTITLE13=Eurythmics - Miracle of Love
TTITLE14=Meat Loaf - I'd Do Anything For Love
TTITLE15=Bonnie Tylor - Total Eclipse of the Heart
TTITLE16=Roby Orbinson - Pretty Woman
TTITLE17=Various Artist - Unknown
EXTD=
EXTT0=
EXTT1=
EXTT2=
EXTT3=
EXTT4=
EXTT5=
EXTT6=
EXTT7=
EXTT8=
EXTT9=
EXTT10=
EXTT11=
EXTT12=
EXTT13=
EXTT14=
EXTT15=
EXTT16=
EXTT17=
PLAYORDER=
